<?xml version="1.0" encoding="UTF-8"?>
<svg xmlns="http://www.w3.org/2000/svg" viewBox="0 0 1070 734">
  <defs>
    <style>
      .cls-1 {
        fill: #f1ab02;
        stroke-width: 0px;
      }
    </style>
  </defs>
  <g id="cercle">
    <path class="cls-1" d="M535,734c-140.75,0-273.48-36.85-373.74-103.75-49.89-33.29-89.22-72.32-116.91-116.01C14.92,467.81,0,418.27,0,367s14.92-100.81,44.35-147.24c27.69-43.69,67.03-82.72,116.91-116.01C261.52,36.85,394.25,0,535,0s273.48,36.85,373.74,103.75c49.88,33.29,89.22,72.32,116.91,116.01,29.43,46.43,44.35,95.96,44.35,147.24s-14.92,100.81-44.35,147.24c-27.69,43.69-67.03,82.72-116.91,116.01-100.26,66.9-232.99,103.75-373.74,103.75ZM535,60c-65.42,0-128.81,8.53-188.42,25.35-57.11,16.12-108.25,39.1-152.02,68.3-86.77,57.91-134.56,133.67-134.56,213.34s47.79,155.43,134.56,213.34c43.76,29.2,94.91,52.18,152.02,68.3,59.61,16.83,123,25.36,188.42,25.36s128.81-8.53,188.42-25.36c57.11-16.12,108.25-39.1,152.02-68.3,86.77-57.91,134.56-133.67,134.56-213.34s-47.79-155.43-134.56-213.34c-43.76-29.2-94.91-52.18-152.02-68.3-59.61-16.82-123-25.35-188.42-25.35Z"/>
  </g>
  <g id="etna">
    <g>
      <rect class="cls-1" x="354" y="184" width="60" height="363"/>
      <rect class="cls-1" x="384.5" y="314.5" width="5" height="60"/>
      <rect class="cls-1" x="497.5" y="152.5" width="60" height="439"/>
      <rect class="cls-1" x="668.5" y="571.99" width="60" height="8.51"/>
      <rect class="cls-1" x="668.5" y="161.5" width="60" height=".51"/>
      <rect class="cls-1" x="755.5" y="210.5" width="60" height="348"/>
      <rect class="cls-1" x="582.5" y="147.81" width="60" height="418.37" transform="translate(-88.4 250.52) rotate(-21.6)"/>
      <rect class="cls-1" x="139.5" y="336.5" width="113" height="60"/>
      <rect class="cls-1" x="799.5" y="335.5" width="120" height="60"/>
      <polygon class="cls-1" points="414.5 569.5 353.5 569.5 353.5 183.5 414.5 182.5 414.5 569.5"/>
      <g>
        <path class="cls-1" d="M717.5,530.5v-8l-7-302,7-17v-40c-7.39-2.22-7.41,12.96-15,11l-19-11-7,433,30-14c7.59-1.96,3.61,2.22,11,0v-52Z"/>
        <g>
          <path class="cls-1" d="M815.5,490.76c-.83.53-1.66,1.07-2.49,1.59-12.28,7.73-25.78,15.04-40.16,21.71-6.41,2.98-7.55,5.69-14.35,8.44l-3,.16v63.22c14.77-5.28,29.11-11.13,42.63-17.42,5.91-2.74,11.7-5.59,17.37-8.53v-69.19Z"/>
          <path class="cls-1" d="M900.16,234.21c-35.43-35.21-85.39-64.93-144.66-86.1v64.24c42.02,17.28,77.1,39.31,102.37,64.42,28.62,28.44,43.13,58.8,43.13,90.23,0,36.4-19.4,66.6-42.5,89.65v77.54c1.32-.91,2.63-1.83,3.93-2.76,30.51-21.77,54.46-46.35,71.19-73.06,18.17-29.01,27.38-59.76,27.38-91.37,0-47.32-21.04-93.24-60.84-132.79Z"/>
        </g>
      </g>
      <g>
        <g>
          <g>
            <path class="cls-1" d="M169,367c0-27.79,11.47-54.92,34.09-80.64,21.33-24.25,52.15-46.34,89.61-64.32l-26.08-54.03c-44.66,21.47-82.01,48.51-108.58,78.72-32.08,36.47-49.04,78.06-49.04,120.27,0,48.94,22.4,96.19,64.78,136.64,37.65,35.93,90.39,65.74,152.72,86.38v-63.63c-45.58-17.22-83.75-39.86-111.3-66.15-21.08-20.12-46.2-52.62-46.2-93.23Z"/>
            <path class="cls-1" d="M291.3,157.02l26.15,54.16c45.49-18.33,97.85-30.69,153.06-36.07v-60.25c-64.45,5.75-125.96,20.23-179.2,42.17Z"/>
          </g>
          <path class="cls-1" d="M414.5,550.86c-21.09-4.03-41.53-9.12-61-15.21v62.56c19.68,5.46,40.1,10.03,61,13.64v-61Z"/>
        </g>
        <g>
          <g>
            <path class="cls-1" d="M557.5,561.61c-7.48.25-15,.39-22.5.39-12.5,0-25.07-.36-37.5-1.05v60.08c12.45.64,25.01.96,37.5.96,7.5,0,15.02-.13,22.5-.36v-60.03Z"/>
            <path class="cls-1" d="M705.99,132.96c-12.26-3.16-24.85-5.97-37.49-8.41v423.7c-3.84.82-7.71,1.6-11.58,2.35l22.43,56.66c9.01-1.91,17.93-3.97,26.64-6.21l22.51-5.8V138.76l-22.51-5.8Z"/>
          </g>
          <path class="cls-1" d="M548.53,112.14c-4.52-.08-9.04-.14-13.53-.14-12.49,0-25.03.33-37.5.96v60.08c12.43-.69,25-1.05,37.5-1.05s24.69.35,36.97,1.02l-23.44-60.88Z"/>
        </g>
      </g>
    </g>
  </g>
</svg>